<mxfile host="app.diagrams.net" modified="2024-04-15T23:05:01.258Z" agent="Mozilla/5.0 (Windows NT 10.0; Win64; x64) AppleWebKit/537.36 (KHTML, like Gecko) Chrome/123.0.0.0 Safari/537.36" etag="y1bei5zuGsFEYW8XKu9m" version="24.2.5" type="device">
  <diagram name="Página-1" id="ejdPOullKk1BJWb26JAT">
    <mxGraphModel dx="1432" dy="794" grid="1" gridSize="10" guides="1" tooltips="1" connect="1" arrows="1" fold="1" page="1" pageScale="1" pageWidth="827" pageHeight="1169" math="0" shadow="0">
      <root>
        <mxCell id="0" />
        <mxCell id="1" parent="0" />
        <mxCell id="6nwBdRIXzqcChX7lMJ9h-1" value="Gerenciamento de Ciclista" style="ellipse;whiteSpace=wrap;html=1;" parent="1" vertex="1">
          <mxGeometry x="70" y="160" width="120" height="80" as="geometry" />
        </mxCell>
        <mxCell id="6nwBdRIXzqcChX7lMJ9h-37" style="edgeStyle=none;shape=connector;rounded=0;orthogonalLoop=1;jettySize=auto;html=1;entryX=0.5;entryY=0;entryDx=0;entryDy=0;labelBackgroundColor=default;strokeColor=default;align=center;verticalAlign=middle;fontFamily=Helvetica;fontSize=11;fontColor=default;endArrow=none;strokeWidth=3;" parent="1" source="6nwBdRIXzqcChX7lMJ9h-3" target="6nwBdRIXzqcChX7lMJ9h-6" edge="1">
          <mxGeometry relative="1" as="geometry" />
        </mxCell>
        <mxCell id="6nwBdRIXzqcChX7lMJ9h-3" value="Aluguel" style="ellipse;whiteSpace=wrap;html=1;" parent="1" vertex="1">
          <mxGeometry x="354" y="280" width="120" height="80" as="geometry" />
        </mxCell>
        <mxCell id="6nwBdRIXzqcChX7lMJ9h-41" style="edgeStyle=none;shape=connector;rounded=0;orthogonalLoop=1;jettySize=auto;html=1;entryX=0;entryY=1;entryDx=0;entryDy=0;labelBackgroundColor=default;strokeColor=default;align=center;verticalAlign=middle;fontFamily=Helvetica;fontSize=11;fontColor=default;endArrow=none;strokeWidth=3;" parent="1" source="6nwBdRIXzqcChX7lMJ9h-4" target="6nwBdRIXzqcChX7lMJ9h-2" edge="1">
          <mxGeometry relative="1" as="geometry" />
        </mxCell>
        <mxCell id="6nwBdRIXzqcChX7lMJ9h-4" value="Gerenciamento de Cartão" style="ellipse;whiteSpace=wrap;html=1;" parent="1" vertex="1">
          <mxGeometry x="30" y="420" width="120" height="80" as="geometry" />
        </mxCell>
        <mxCell id="6nwBdRIXzqcChX7lMJ9h-5" value="Administradora CC" style="ellipse;whiteSpace=wrap;html=1;" parent="1" vertex="1">
          <mxGeometry x="120" y="585" width="120" height="80" as="geometry" />
        </mxCell>
        <mxCell id="6nwBdRIXzqcChX7lMJ9h-6" value="Cobrança de Taxas Atrasadas" style="ellipse;whiteSpace=wrap;html=1;" parent="1" vertex="1">
          <mxGeometry x="510" y="580" width="120" height="80" as="geometry" />
        </mxCell>
        <mxCell id="6nwBdRIXzqcChX7lMJ9h-9" style="edgeStyle=orthogonalEdgeStyle;rounded=0;orthogonalLoop=1;jettySize=auto;html=1;strokeColor=none;" parent="1" source="6nwBdRIXzqcChX7lMJ9h-2" target="6nwBdRIXzqcChX7lMJ9h-3" edge="1">
          <mxGeometry relative="1" as="geometry" />
        </mxCell>
        <mxCell id="6nwBdRIXzqcChX7lMJ9h-33" style="edgeStyle=none;shape=connector;rounded=0;orthogonalLoop=1;jettySize=auto;html=1;entryX=0.5;entryY=0;entryDx=0;entryDy=0;labelBackgroundColor=default;strokeColor=default;align=center;verticalAlign=middle;fontFamily=Helvetica;fontSize=11;fontColor=default;endArrow=none;exitX=0;exitY=0.625;exitDx=0;exitDy=0;exitPerimeter=0;strokeWidth=3;" parent="1" source="6nwBdRIXzqcChX7lMJ9h-7" target="6nwBdRIXzqcChX7lMJ9h-1" edge="1">
          <mxGeometry relative="1" as="geometry" />
        </mxCell>
        <mxCell id="6nwBdRIXzqcChX7lMJ9h-34" style="edgeStyle=none;shape=connector;rounded=0;orthogonalLoop=1;jettySize=auto;html=1;exitX=1;exitY=0.5;exitDx=0;exitDy=0;entryX=0;entryY=0.5;entryDx=0;entryDy=0;labelBackgroundColor=default;strokeColor=default;align=center;verticalAlign=middle;fontFamily=Helvetica;fontSize=11;fontColor=default;endArrow=none;strokeWidth=3;" parent="1" source="6nwBdRIXzqcChX7lMJ9h-7" target="6nwBdRIXzqcChX7lMJ9h-31" edge="1">
          <mxGeometry relative="1" as="geometry" />
        </mxCell>
        <mxCell id="6nwBdRIXzqcChX7lMJ9h-7" value="Autenticação" style="ellipse;whiteSpace=wrap;html=1;" parent="1" vertex="1">
          <mxGeometry x="320" y="10" width="120" height="80" as="geometry" />
        </mxCell>
        <mxCell id="6nwBdRIXzqcChX7lMJ9h-14" value="" style="endArrow=none;html=1;rounded=0;entryX=0.5;entryY=1;entryDx=0;entryDy=0;exitX=0.5;exitY=0;exitDx=0;exitDy=0;strokeWidth=3;" parent="1" source="6nwBdRIXzqcChX7lMJ9h-4" target="6nwBdRIXzqcChX7lMJ9h-1" edge="1">
          <mxGeometry width="50" height="50" relative="1" as="geometry">
            <mxPoint x="160" y="450" as="sourcePoint" />
            <mxPoint x="210" y="400" as="targetPoint" />
          </mxGeometry>
        </mxCell>
        <mxCell id="6nwBdRIXzqcChX7lMJ9h-15" value="" style="endArrow=none;html=1;rounded=0;entryX=0.5;entryY=1;entryDx=0;entryDy=0;exitX=0;exitY=0;exitDx=0;exitDy=0;strokeWidth=3;" parent="1" source="6nwBdRIXzqcChX7lMJ9h-2" target="6nwBdRIXzqcChX7lMJ9h-1" edge="1">
          <mxGeometry width="50" height="50" relative="1" as="geometry">
            <mxPoint x="270" y="460" as="sourcePoint" />
            <mxPoint x="180" y="240" as="targetPoint" />
          </mxGeometry>
        </mxCell>
        <mxCell id="6nwBdRIXzqcChX7lMJ9h-17" value="" style="endArrow=none;html=1;rounded=0;entryX=1;entryY=1;entryDx=0;entryDy=0;exitX=0;exitY=0.5;exitDx=0;exitDy=0;strokeWidth=3;" parent="1" source="6nwBdRIXzqcChX7lMJ9h-3" target="6nwBdRIXzqcChX7lMJ9h-1" edge="1">
          <mxGeometry width="50" height="50" relative="1" as="geometry">
            <mxPoint x="260" y="110" as="sourcePoint" />
            <mxPoint x="200" y="210" as="targetPoint" />
          </mxGeometry>
        </mxCell>
        <mxCell id="6nwBdRIXzqcChX7lMJ9h-19" value="" style="endArrow=none;html=1;rounded=0;entryX=0.5;entryY=0;entryDx=0;entryDy=0;exitX=0.5;exitY=1;exitDx=0;exitDy=0;strokeWidth=3;" parent="1" source="6nwBdRIXzqcChX7lMJ9h-4" target="6nwBdRIXzqcChX7lMJ9h-5" edge="1">
          <mxGeometry width="50" height="50" relative="1" as="geometry">
            <mxPoint x="190" y="450" as="sourcePoint" />
            <mxPoint x="140" y="250" as="targetPoint" />
          </mxGeometry>
        </mxCell>
        <mxCell id="6nwBdRIXzqcChX7lMJ9h-20" value="" style="endArrow=none;html=1;rounded=0;entryX=0;entryY=1;entryDx=0;entryDy=0;exitX=0.5;exitY=1;exitDx=0;exitDy=0;strokeWidth=3;" parent="1" source="6nwBdRIXzqcChX7lMJ9h-2" target="6nwBdRIXzqcChX7lMJ9h-3" edge="1">
          <mxGeometry width="50" height="50" relative="1" as="geometry">
            <mxPoint x="260" y="110" as="sourcePoint" />
            <mxPoint x="182" y="182" as="targetPoint" />
          </mxGeometry>
        </mxCell>
        <mxCell id="6nwBdRIXzqcChX7lMJ9h-21" value="Gerenciamento de Bicicletas" style="ellipse;whiteSpace=wrap;html=1;" parent="1" vertex="1">
          <mxGeometry x="414" y="140" width="120" height="80" as="geometry" />
        </mxCell>
        <mxCell id="6nwBdRIXzqcChX7lMJ9h-22" value="" style="endArrow=none;html=1;rounded=0;entryX=0.5;entryY=0;entryDx=0;entryDy=0;exitX=0;exitY=1;exitDx=0;exitDy=0;strokeWidth=3;" parent="1" source="6nwBdRIXzqcChX7lMJ9h-21" target="6nwBdRIXzqcChX7lMJ9h-3" edge="1">
          <mxGeometry width="50" height="50" relative="1" as="geometry">
            <mxPoint x="364" y="330" as="sourcePoint" />
            <mxPoint x="182" y="238" as="targetPoint" />
          </mxGeometry>
        </mxCell>
        <mxCell id="6nwBdRIXzqcChX7lMJ9h-23" value="" style="edgeStyle=orthogonalEdgeStyle;rounded=0;orthogonalLoop=1;jettySize=auto;html=1;strokeColor=none;" parent="1" source="6nwBdRIXzqcChX7lMJ9h-7" target="6nwBdRIXzqcChX7lMJ9h-2" edge="1">
          <mxGeometry relative="1" as="geometry">
            <mxPoint x="540" y="110" as="sourcePoint" />
            <mxPoint x="380" y="340" as="targetPoint" />
          </mxGeometry>
        </mxCell>
        <mxCell id="6nwBdRIXzqcChX7lMJ9h-40" style="edgeStyle=none;shape=connector;rounded=0;orthogonalLoop=1;jettySize=auto;html=1;entryX=0;entryY=0.5;entryDx=0;entryDy=0;labelBackgroundColor=default;strokeColor=default;align=center;verticalAlign=middle;fontFamily=Helvetica;fontSize=11;fontColor=default;endArrow=none;strokeWidth=3;" parent="1" source="6nwBdRIXzqcChX7lMJ9h-2" target="6nwBdRIXzqcChX7lMJ9h-6" edge="1">
          <mxGeometry relative="1" as="geometry" />
        </mxCell>
        <mxCell id="6nwBdRIXzqcChX7lMJ9h-2" value="Envio de Email" style="ellipse;whiteSpace=wrap;html=1;" parent="1" vertex="1">
          <mxGeometry x="260" y="430" width="120" height="80" as="geometry" />
        </mxCell>
        <mxCell id="6nwBdRIXzqcChX7lMJ9h-35" style="edgeStyle=none;shape=connector;rounded=0;orthogonalLoop=1;jettySize=auto;html=1;entryX=1;entryY=1;entryDx=0;entryDy=0;labelBackgroundColor=default;strokeColor=default;align=center;verticalAlign=middle;fontFamily=Helvetica;fontSize=11;fontColor=default;endArrow=none;strokeWidth=3;" parent="1" source="6nwBdRIXzqcChX7lMJ9h-24" target="6nwBdRIXzqcChX7lMJ9h-26" edge="1">
          <mxGeometry relative="1" as="geometry" />
        </mxCell>
        <mxCell id="6nwBdRIXzqcChX7lMJ9h-46" style="edgeStyle=none;shape=connector;rounded=0;orthogonalLoop=1;jettySize=auto;html=1;entryX=1;entryY=0.5;entryDx=0;entryDy=0;labelBackgroundColor=default;strokeColor=default;align=center;verticalAlign=middle;fontFamily=Helvetica;fontSize=11;fontColor=default;endArrow=none;strokeWidth=3;" parent="1" source="6nwBdRIXzqcChX7lMJ9h-24" target="6nwBdRIXzqcChX7lMJ9h-2" edge="1">
          <mxGeometry relative="1" as="geometry" />
        </mxCell>
        <mxCell id="6nwBdRIXzqcChX7lMJ9h-24" value="Gerenciamento de Totens" style="ellipse;whiteSpace=wrap;html=1;" parent="1" vertex="1">
          <mxGeometry x="670" y="430" width="120" height="80" as="geometry" />
        </mxCell>
        <mxCell id="6nwBdRIXzqcChX7lMJ9h-39" style="edgeStyle=none;shape=connector;rounded=0;orthogonalLoop=1;jettySize=auto;html=1;entryX=1;entryY=1;entryDx=0;entryDy=0;labelBackgroundColor=default;strokeColor=default;align=center;verticalAlign=middle;fontFamily=Helvetica;fontSize=11;fontColor=default;endArrow=none;strokeWidth=3;" parent="1" source="6nwBdRIXzqcChX7lMJ9h-26" target="6nwBdRIXzqcChX7lMJ9h-21" edge="1">
          <mxGeometry relative="1" as="geometry" />
        </mxCell>
        <mxCell id="6nwBdRIXzqcChX7lMJ9h-45" style="edgeStyle=none;shape=connector;rounded=0;orthogonalLoop=1;jettySize=auto;html=1;entryX=1;entryY=0.5;entryDx=0;entryDy=0;labelBackgroundColor=default;strokeColor=default;align=center;verticalAlign=middle;fontFamily=Helvetica;fontSize=11;fontColor=default;endArrow=none;strokeWidth=3;" parent="1" source="6nwBdRIXzqcChX7lMJ9h-26" target="6nwBdRIXzqcChX7lMJ9h-2" edge="1">
          <mxGeometry relative="1" as="geometry" />
        </mxCell>
        <mxCell id="6nwBdRIXzqcChX7lMJ9h-26" value="Gerenciamento de Trancas" style="ellipse;whiteSpace=wrap;html=1;" parent="1" vertex="1">
          <mxGeometry x="590" y="220" width="120" height="80" as="geometry" />
        </mxCell>
        <mxCell id="6nwBdRIXzqcChX7lMJ9h-29" value="" style="endArrow=none;html=1;rounded=0;entryX=0;entryY=0.5;entryDx=0;entryDy=0;exitX=1;exitY=0.5;exitDx=0;exitDy=0;strokeWidth=3;" parent="1" source="6nwBdRIXzqcChX7lMJ9h-3" target="6nwBdRIXzqcChX7lMJ9h-26" edge="1">
          <mxGeometry width="50" height="50" relative="1" as="geometry">
            <mxPoint x="390" y="430" as="sourcePoint" />
            <mxPoint x="440" y="380" as="targetPoint" />
          </mxGeometry>
        </mxCell>
        <mxCell id="6nwBdRIXzqcChX7lMJ9h-31" value="Gerenciamento de Funcionarios" style="ellipse;whiteSpace=wrap;html=1;" parent="1" vertex="1">
          <mxGeometry x="540" y="40" width="120" height="80" as="geometry" />
        </mxCell>
        <mxCell id="6nwBdRIXzqcChX7lMJ9h-42" value="" style="endArrow=none;dashed=1;html=1;rounded=0;labelBackgroundColor=default;strokeColor=default;align=center;verticalAlign=middle;fontFamily=Helvetica;fontSize=11;fontColor=default;shape=connector;edgeStyle=orthogonalEdgeStyle;curved=1;" parent="1" edge="1">
          <mxGeometry width="50" height="50" relative="1" as="geometry">
            <mxPoint y="430" as="sourcePoint" />
            <mxPoint x="100" y="730" as="targetPoint" />
            <Array as="points">
              <mxPoint y="400" />
              <mxPoint x="250" y="400" />
              <mxPoint x="250" y="750" />
            </Array>
          </mxGeometry>
        </mxCell>
        <mxCell id="6nwBdRIXzqcChX7lMJ9h-44" value="" style="endArrow=none;dashed=1;html=1;rounded=0;labelBackgroundColor=default;strokeColor=default;align=center;verticalAlign=middle;fontFamily=Helvetica;fontSize=11;fontColor=default;shape=connector;edgeStyle=orthogonalEdgeStyle;curved=1;" parent="1" edge="1">
          <mxGeometry width="50" height="50" relative="1" as="geometry">
            <mxPoint x="210" y="430" as="sourcePoint" />
            <mxPoint x="250" y="540" as="targetPoint" />
            <Array as="points">
              <mxPoint x="210" y="400" />
              <mxPoint x="441" y="400" />
            </Array>
          </mxGeometry>
        </mxCell>
        <mxCell id="6nwBdRIXzqcChX7lMJ9h-47" value="" style="endArrow=none;dashed=1;html=1;rounded=0;labelBackgroundColor=default;strokeColor=default;align=center;verticalAlign=middle;fontFamily=Helvetica;fontSize=11;fontColor=default;shape=connector;edgeStyle=orthogonalEdgeStyle;curved=1;" parent="1" edge="1">
          <mxGeometry width="50" height="50" relative="1" as="geometry">
            <mxPoint x="440" y="441" as="sourcePoint" />
            <mxPoint x="320" y="400" as="targetPoint" />
            <Array as="points">
              <mxPoint x="440" y="442" />
              <mxPoint x="491" y="442" />
              <mxPoint x="491" y="240" />
              <mxPoint x="320" y="240" />
            </Array>
          </mxGeometry>
        </mxCell>
        <mxCell id="6nwBdRIXzqcChX7lMJ9h-48" value="" style="endArrow=none;dashed=1;html=1;rounded=0;labelBackgroundColor=default;strokeColor=default;align=center;verticalAlign=middle;fontFamily=Helvetica;fontSize=11;fontColor=default;shape=connector;edgeStyle=orthogonalEdgeStyle;curved=1;" parent="1" edge="1">
          <mxGeometry width="50" height="50" relative="1" as="geometry">
            <mxPoint x="80" y="400" as="sourcePoint" />
            <mxPoint x="270" y="401" as="targetPoint" />
            <Array as="points">
              <mxPoint x="80" y="401" />
              <mxPoint x="51" y="401" />
              <mxPoint x="51" y="80" />
              <mxPoint x="270" y="80" />
            </Array>
          </mxGeometry>
        </mxCell>
        <mxCell id="KXgwhqEB8l2G-2Dc72Fs-2" value="" style="endArrow=none;dashed=1;html=1;rounded=0;edgeStyle=orthogonalEdgeStyle;curved=1;" edge="1" parent="1">
          <mxGeometry width="50" height="50" relative="1" as="geometry">
            <mxPoint x="354" y="260" as="sourcePoint" />
            <mxPoint x="480" y="430" as="targetPoint" />
            <Array as="points">
              <mxPoint x="320" y="260" />
              <mxPoint x="320" y="130" />
              <mxPoint x="810" y="130" />
              <mxPoint x="810" y="600" />
              <mxPoint x="660" y="600" />
              <mxPoint x="660" y="510" />
              <mxPoint x="540" y="510" />
              <mxPoint x="540" y="430" />
            </Array>
          </mxGeometry>
        </mxCell>
        <mxCell id="KXgwhqEB8l2G-2Dc72Fs-3" value="" style="endArrow=none;dashed=1;html=1;rounded=0;" edge="1" parent="1">
          <mxGeometry width="50" height="50" relative="1" as="geometry">
            <mxPoint x="340" y="160" as="sourcePoint" />
            <mxPoint x="280" as="targetPoint" />
          </mxGeometry>
        </mxCell>
        <mxCell id="KXgwhqEB8l2G-2Dc72Fs-4" value="" style="endArrow=none;dashed=1;html=1;rounded=0;" edge="1" parent="1">
          <mxGeometry width="50" height="50" relative="1" as="geometry">
            <mxPoint x="470" y="130" as="sourcePoint" />
            <mxPoint x="500" as="targetPoint" />
          </mxGeometry>
        </mxCell>
      </root>
    </mxGraphModel>
  </diagram>
</mxfile>
